<svg width="380" height="69" viewBox="0 0 380 69" fill="none" xmlns="http://www.w3.org/2000/svg">
<g clip-path="url(#clip0_283_5133)">
<path d="M55.9897 37.4529L56.11 16.3434C56.1285 13.5023 54.4535 10.9295 51.853 9.78198L30.9656 0.601542C30.0402 0.194345 29.0499 1.35154e-06 28.0597 1.35154e-06C27.0695 1.35154e-06 26.0793 0.194345 25.1538 0.601542L4.25721 9.78198C1.65671 10.9295 -0.0183541 13.5115 0.000154815 16.3434L0.129717 37.4529C0.129717 37.6102 0.129717 37.7583 0.111208 37.9156C-0.0276086 39.8683 -0.277479 55.388 25.3852 65.8178C26.2366 66.1695 27.1528 66.3361 28.0597 66.3268C28.9667 66.3268 29.8736 66.1602 30.7343 65.8178C56.3969 55.388 56.147 39.8683 56.0082 37.9156C55.999 37.7583 55.9897 37.6102 55.9897 37.4529Z" fill="url(#paint0_linear_283_5133)"/>
<path d="M46.5229 14.6864L48.519 15.4218C48.9992 15.6019 48.9992 16.2773 48.519 16.4574L46.5229 17.1927C46.3729 17.2528 46.2528 17.3728 46.1928 17.5229L45.4574 19.519C45.2773 19.9992 44.6019 19.9992 44.4218 19.519L43.6864 17.5229C43.6264 17.3728 43.5063 17.2528 43.3563 17.1927L41.3602 16.4574C40.8799 16.2773 40.8799 15.6019 41.3602 15.4218L43.3563 14.6864C43.5063 14.6264 43.6264 14.5063 43.6864 14.3562L44.4218 12.3602C44.6019 11.8799 45.2773 11.8799 45.4574 12.3602L46.1928 14.3562C46.2528 14.5063 46.3729 14.6264 46.5229 14.6864Z" fill="white"/>
<g clip-path="url(#clip1_283_5133)">
<path d="M12.2743 48.7688L13.3967 49.1823C13.6668 49.2836 13.6668 49.6633 13.3967 49.7646L12.2743 50.1781C12.19 50.2118 12.1224 50.2794 12.0887 50.3638L11.6752 51.4861C11.5739 51.7562 11.1942 51.7562 11.0929 51.4861L10.6794 50.3638C10.6456 50.2794 10.5781 50.2118 10.4937 50.1781L9.37134 49.7646C9.10129 49.6633 9.10129 49.2836 9.37134 49.1823L10.4937 48.7688C10.5781 48.735 10.6456 48.6675 10.6794 48.5831L11.0929 47.4607C11.1942 47.1907 11.5739 47.1907 11.6752 47.4607L12.0887 48.5831C12.1224 48.6675 12.19 48.735 12.2743 48.7688Z" fill="white"/>
</g>
<g clip-path="url(#clip2_283_5133)">
<path d="M36.5444 29.2139C39.7838 33.0376 41.889 36.9215 42.6538 40.2297C43.7364 38.0557 44.3551 35.6068 44.3551 33.0118C44.3551 29.1365 42.9975 25.5878 40.7376 22.7865L36.6475 26.8938C36.0202 27.5211 35.9773 28.5265 36.553 29.2053L36.5444 29.2139Z" fill="white"/>
<path d="M26.8001 24.8488C21.9882 21.4804 17.9669 20.7329 16.6694 21.996L16.635 22.0304C15.157 23.5599 16.3514 28.8358 21.2321 34.8163C21.8765 35.5982 23.0623 35.6498 23.7755 34.9366L27.3243 31.3706C29.1889 29.4974 28.9569 26.3697 26.7915 24.8488H26.8001Z" fill="white"/>
<path d="M21.2923 42.3005L17.9068 45.6946C20.6908 47.9373 24.231 49.2778 28.0805 49.2778C30.074 49.2778 31.9816 48.8997 33.7517 48.2381C30.6497 47.3186 27.1009 45.2564 23.6209 42.206C22.9421 41.6131 21.9196 41.6561 21.2837 42.2919L21.2923 42.3005Z" fill="white"/>
<path d="M19.0152 37.5058C15.9047 33.811 13.8424 30.0731 13.0347 26.8423C12.2528 28.7413 11.8146 30.8207 11.8146 33.0032C11.8146 36.8957 13.1894 40.4703 15.4665 43.2715L18.9121 39.8172C19.5394 39.19 19.5824 38.1846 19.0152 37.5058Z" fill="white"/>
<path d="M31.7756 31.7831L26.156 37.4285C25.4514 38.1331 25.4944 39.3017 26.2505 39.9461C32.1537 44.9901 37.421 46.279 38.9505 44.7924L38.9849 44.7581C40.4714 43.22 39.2599 37.9097 34.3277 31.8948C33.6832 31.1129 32.4974 31.0613 31.7842 31.7831H31.7756Z" fill="white"/>
<path d="M34.259 24.4192L38.3061 20.3548C35.5135 18.0949 31.9647 16.7373 28.0894 16.7373C25.5804 16.7373 23.2088 17.3216 21.0864 18.3355C24.3516 19.1089 28.1668 21.2399 31.9218 24.5051C32.6006 25.098 33.6231 25.055 34.259 24.4192Z" fill="white"/>
</g>
</g>
<path d="M104.593 11.1651V38.9773C104.593 49.6022 97.8429 56.9771 86.1556 56.9771C74.2807 56.9771 67.6558 49.6022 67.6558 38.9773V11.1651H77.1557V39.1648C77.1557 44.7272 79.8431 48.4772 86.1556 48.4772C92.4055 48.4772 95.093 44.7272 95.093 39.1648V11.1651H104.593Z" fill="#101828"/>
<path d="M120.366 37.8523V56.0396H111.679V22.665H119.679V27.4149C122.116 24.1024 125.554 22.04 129.929 22.04C136.616 22.04 141.241 26.4149 141.241 34.4773V56.0396H132.616V37.4148C132.616 32.4774 130.679 29.7274 126.741 29.7274C123.304 29.7274 120.366 32.4774 120.366 37.8523Z" fill="#101828"/>
<path d="M157.539 14.9151C157.539 17.8525 155.164 20.04 151.727 20.04C148.352 20.04 145.977 17.8525 145.977 14.9151C145.977 11.8526 148.352 9.66511 151.727 9.66511C155.164 9.66511 157.539 11.8526 157.539 14.9151ZM156.164 56.0396H147.477V22.665H156.164V56.0396Z" fill="#101828"/>
<path d="M192.707 22.665L180.457 56.0396H170.957L158.645 22.665H168.02L175.957 46.1647L183.957 22.665H192.707Z" fill="#101828"/>
<path d="M208.609 56.6021C198.609 56.6021 191.922 49.6647 191.922 39.2273C191.922 29.2899 198.859 22.04 208.484 22.04C219.047 22.04 226.047 30.6024 224.484 41.4773H200.797C201.359 46.9147 203.984 49.9147 208.422 49.9147C212.234 49.9147 214.797 48.0397 215.797 44.7272H224.422C222.547 52.2896 216.734 56.6021 208.609 56.6021ZM208.297 28.4149C204.234 28.4149 201.672 31.0399 200.922 35.9773H215.297C215.047 31.3524 212.422 28.4149 208.297 28.4149Z" fill="#101828"/>
<path d="M237.74 39.8523V56.0396H229.053V22.665H237.053V29.1024C239.49 24.8524 244.678 22.29 250.053 22.29V31.2899C242.678 30.7274 237.74 32.4774 237.74 39.8523Z" fill="#101828"/>
<path d="M281.503 45.3522C281.503 52.3521 276.19 56.6646 266.69 56.6646C257.19 56.6646 251.878 52.1021 251.19 44.6647H259.503C259.565 48.1022 262.503 50.2897 266.815 50.2897C270.19 50.2897 272.753 49.2272 272.753 46.8522C272.753 44.7272 271.378 43.8522 268.19 43.2272L262.19 42.1023C256.19 41.0398 252.565 37.7273 252.565 32.5399C252.565 26.3524 257.878 22.04 266.19 22.04C274.565 22.04 280.315 26.4774 280.94 33.6648H272.628C272.315 30.4149 269.878 28.4149 266.19 28.4149C263.003 28.4149 260.878 29.6024 260.878 31.7274C260.878 33.7273 262.253 34.5398 265.253 35.1023L271.69 36.2898C278.19 37.5398 281.503 40.5398 281.503 45.3522Z" fill="#101828"/>
<path d="M306.058 56.0396V51.9146C303.871 55.0396 300.558 56.6646 295.996 56.6646C289.059 56.6646 284.434 52.6021 284.434 46.3522C284.434 39.8523 289.684 36.3523 299.433 36.3523C301.308 36.3523 302.933 36.4773 304.996 36.7273V34.7273C304.996 30.9774 302.871 28.7899 299.246 28.7899C295.496 28.7899 293.246 30.9774 292.934 34.7273H285.121C285.621 27.0399 291.184 22.04 299.246 22.04C307.996 22.04 313.121 26.8524 313.121 35.0398V56.0396H306.058ZM292.621 46.1022C292.621 48.9147 294.621 50.6647 297.871 50.6647C302.308 50.6647 304.996 48.2272 304.996 44.3522V41.9773C302.933 41.6648 301.496 41.5398 299.996 41.5398C295.059 41.5398 292.621 43.1022 292.621 46.1022Z" fill="#101828"/>
<path d="M328.107 56.0396H319.357V11.1651H328.107V56.0396Z" fill="#101828"/>
<path d="M343.397 56.0396H334.647V11.1651H343.397V56.0396Z" fill="#101828"/>
<path d="M380 22.665L363.75 68.102H354.313L359.063 55.6646L345.938 22.665H355.313L363.688 45.5397L371.313 22.665H380Z" fill="#101828"/>
<defs>
<linearGradient id="paint0_linear_283_5133" x1="8.38842" y1="1.80167e-06" x2="47.6118" y2="66.3921" gradientUnits="userSpaceOnUse">
<stop offset="0.159115" stop-color="#9718E7"/>
<stop offset="1" stop-color="#5A2ED4"/>
</linearGradient>
<clipPath id="clip0_283_5133">
<rect width="56.1191" height="66.3361" fill="white"/>
</clipPath>
<clipPath id="clip1_283_5133">
<rect width="4.43046" height="4.43046" fill="white" transform="translate(9.1688 47.2582)"/>
</clipPath>
<clipPath id="clip2_283_5133">
<rect width="32.5491" height="32.5491" fill="white" transform="translate(11.8148 16.7373)"/>
</clipPath>
</defs>
</svg>
