<svg width="20" height="24" viewBox="0 0 20 24" fill="none" xmlns="http://www.w3.org/2000/svg">
    <path d="M10.002 0C10.3548 4.1097e-05 10.7075 0.0698184 11.0372 0.214844L18.4825 3.48633C19.4093 3.89533 20.0066 4.81259 20.0001 5.8252L19.9571 13.3496C19.9571 13.4057 19.9606 13.4586 19.9639 13.5146C20.0134 14.2114 20.1014 19.7427 10.9551 23.46C10.6485 23.5819 10.3251 23.6416 10.002 23.6416C9.6788 23.6449 9.35132 23.5853 9.0479 23.46C-0.0981006 19.7426 -0.00938849 14.2112 0.0400919 13.5146C0.046688 13.4586 0.0459512 13.4057 0.0459512 13.3496L5.28057e-05 5.8252C-0.00646488 4.81594 0.590858 3.89536 1.51763 3.48633L8.96587 0.214844C9.29568 0.0697277 9.64911 2.30228e-05 10.002 0ZM4.16119 16.917C4.12506 16.8208 3.99024 16.8208 3.95415 16.917L3.80669 17.3164C3.79465 17.3465 3.77035 17.3708 3.74029 17.3828L3.34087 17.5303C3.24482 17.5664 3.24482 17.7021 3.34087 17.7383L3.74029 17.8857C3.77026 17.8977 3.79462 17.9212 3.80669 17.9512L3.95415 18.3516C3.99025 18.4477 4.12499 18.4476 4.16119 18.3516L4.30865 17.9512C4.32065 17.9213 4.3452 17.8978 4.37505 17.8857L4.77544 17.7383C4.87155 17.7022 4.8715 17.5665 4.77544 17.5303L4.37505 17.3828C4.34511 17.3707 4.32064 17.3464 4.30865 17.3164L4.16119 16.917ZM8.41997 15.0439C8.17802 14.8327 7.8126 14.8476 7.58599 15.0742L7.5899 15.0771L6.38287 16.2871C7.37509 17.0864 8.6369 17.5643 10.0088 17.5645C10.7193 17.5645 11.3994 17.4292 12.0303 17.1934C10.9249 16.8656 9.66011 16.1309 8.41997 15.0439ZM12.2354 11.3682C12.0056 11.0899 11.5832 11.072 11.3292 11.3291H11.3262L9.32329 13.3408C9.07234 13.5919 9.08731 14.0085 9.3565 14.2383C11.4605 16.036 13.3386 16.4955 13.8838 15.9658L13.8956 15.9531C14.4254 15.4049 13.9934 13.5121 12.2354 11.3682ZM4.64654 9.56738C4.36784 10.2442 4.21099 10.9858 4.21099 11.7637C4.21101 13.151 4.70118 14.4254 5.51275 15.4238L6.74126 14.1924C6.96478 13.9688 6.98044 13.6101 6.77837 13.3682C5.6697 12.0512 4.93443 10.719 4.64654 9.56738ZM13.0626 9.58594C12.8391 9.8095 12.8243 10.1682 13.0293 10.4102L13.0254 10.4131C14.1799 11.7758 14.9305 13.1598 15.2032 14.3389C15.589 13.5641 15.8096 12.6914 15.8096 11.7666C15.8096 10.3854 15.326 9.1205 14.5206 8.12207L13.0626 9.58594ZM9.55279 8.85742C7.83774 7.65692 6.40396 7.38968 5.94146 7.83984L5.92974 7.85254C5.40308 8.39781 5.82892 10.2786 7.56841 12.4102C7.7981 12.6884 8.22054 12.7069 8.47466 12.4531L9.73931 11.1816C10.4038 10.5141 10.3214 9.39961 9.54986 8.85742H9.55279ZM10.0127 5.96582C9.11869 5.96585 8.27297 6.17393 7.51665 6.53516C8.68031 6.81086 10.0398 7.57083 11.378 8.73438C11.6198 8.94559 11.9843 8.93038 12.211 8.7041L13.6543 7.25488C12.6591 6.44952 11.3938 5.96592 10.0127 5.96582ZM16.2032 4.40527C16.1389 4.23449 15.8984 4.23459 15.834 4.40527L15.5713 5.11719C15.55 5.17046 15.5074 5.21296 15.4542 5.23438L14.7422 5.49707C14.5715 5.56145 14.5715 5.80191 14.7422 5.86621L15.4542 6.12793C15.5076 6.14934 15.55 6.19267 15.5713 6.24609L15.834 6.95703C15.8982 7.12819 16.139 7.12815 16.2032 6.95703L16.4649 6.24609C16.4863 6.19265 16.5296 6.14935 16.5831 6.12793L17.294 5.86621C17.4652 5.80202 17.4652 5.56126 17.294 5.49707L16.5831 5.23438C16.5297 5.21297 16.4863 5.17061 16.4649 5.11719L16.2032 4.40527Z" fill="#A7AAAD"/>
</svg>
